<?xml version="1.0" standalone="no"?>
<!DOCTYPE svg PUBLIC "-//W3C//DTD SVG 20010904//EN"
 "http://www.w3.org/TR/2001/REC-SVG-20010904/DTD/svg10.dtd">
<svg version="1.0" xmlns="http://www.w3.org/2000/svg"
 width="1200.000000pt" height="1200.000000pt" viewBox="0 0 1200.000000 1200.000000"
 preserveAspectRatio="xMidYMid meet">

<g transform="translate(0.000000,1200.000000) scale(0.100000,-0.100000)"
fill="#000000" stroke="none">
<path d="M4430 7200 l0 -1570 1570 0 1570 0 0 1570 0 1570 -1570 0 -1570 0 0
-1570z m3070 0 l0 -1500 -1500 0 -1500 0 0 1500 0 1500 1500 0 1500 0 0 -1500z"/>
<path d="M5394 8116 c-42 -19 -74 -62 -74 -101 0 -26 -8 -37 -44 -63 -93 -67
-166 -199 -166 -300 0 -25 -5 -35 -20 -39 -18 -5 -20 -14 -20 -109 l0 -104
365 0 365 0 0 105 c0 79 -3 105 -13 105 -8 0 -17 25 -24 66 -17 96 -63 183
-129 243 -31 28 -60 51 -65 51 -5 0 -9 15 -9 33 0 44 -34 95 -75 113 -42 17
-51 17 -91 0z m85 -67 c29 -27 24 -66 -10 -92 -24 -17 -30 -18 -55 -6 -40 19
-47 79 -12 103 30 21 50 20 77 -5z m-48 -159 c21 0 54 7 73 16 33 16 34 16 70
-12 70 -55 136 -182 136 -261 l0 -23 -275 0 -274 0 5 33 c21 118 50 173 125
241 l51 46 25 -20 c16 -12 41 -20 64 -20z m309 -385 l0 -45 -305 0 -305 0 0
45 0 45 305 0 305 0 0 -45z"/>
<path d="M6211 7443 c-293 -290 -621 -619 -728 -731 l-196 -203 24 -25 24 -24
730 730 730 730 -26 26 -26 25 -532 -528z"/>
<path d="M6439 6874 c-9 -11 -10 -20 -2 -32 8 -14 30 -18 107 -20 l96 -3 0
-274 c0 -267 0 -274 20 -280 48 -15 50 -1 50 286 l0 268 96 3 c77 2 99 6 107
20 8 12 7 21 -2 32 -20 24 -452 24 -472 0z"/>
<path d="M1912 4638 c-19 -19 -15 -66 7 -78 11 -5 81 -10 155 -10 l136 0 0
-410 c0 -394 1 -410 19 -420 29 -15 49 -12 71 10 19 19 20 33 20 420 l0 400
133 0 c104 0 137 3 155 16 24 17 29 53 10 72 -17 17 -689 17 -706 0z"/>
<path d="M5472 4638 c-9 -9 -12 -123 -12 -453 0 -415 1 -443 18 -458 16 -15
47 -17 228 -17 224 0 282 9 348 52 87 57 127 186 95 302 -13 48 -80 121 -125
138 -19 6 -34 14 -34 18 0 3 13 12 29 22 16 9 42 35 58 59 25 38 28 51 28 123
0 107 -29 161 -107 200 -51 26 -54 26 -283 26 -166 0 -234 -3 -243 -12z m447
-106 c51 -25 74 -63 75 -119 1 -65 -19 -108 -63 -135 -33 -21 -47 -23 -196
-23 l-160 0 -3 134 c-1 74 0 141 2 148 4 10 42 13 158 13 126 0 159 -3 187
-18z m46 -407 c54 -27 77 -71 77 -144 0 -73 -20 -111 -76 -142 -38 -22 -52
-23 -216 -24 l-175 0 -3 155 c-1 85 0 160 3 168 4 11 37 13 178 10 147 -3 178
-6 212 -23z"/>
<path d="M9002 4574 c-20 -13 -22 -24 -22 -95 l0 -79 -52 0 c-64 0 -80 -9 -80
-45 0 -38 14 -48 74 -49 l53 -2 5 -249 c4 -225 7 -253 24 -282 35 -56 134 -80
197 -47 25 13 30 20 27 47 -3 32 -4 32 -57 33 -82 1 -81 -1 -81 268 l0 231 70
1 c85 0 110 17 94 61 -9 27 -12 28 -86 31 l-76 3 -4 80 c-3 66 -7 83 -23 95
-24 18 -35 18 -63 -2z"/>
<path d="M2972 4389 c-35 -20 -63 -46 -83 -76 l-29 -47 0 52 c0 39 -5 57 -20
72 -24 24 -38 25 -68 4 -22 -15 -22 -16 -22 -333 0 -295 1 -319 18 -334 23
-21 42 -21 68 -3 17 13 19 31 24 233 5 216 5 218 33 265 15 26 44 60 64 75 33
25 44 28 117 28 79 0 81 0 91 29 24 69 -96 91 -193 35z"/>
<path d="M4360 4403 c-29 -11 -67 -38 -107 -78 -53 -53 -64 -71 -83 -134 -28
-92 -25 -220 8 -293 30 -67 94 -133 161 -164 66 -32 174 -43 247 -25 59 15
153 76 174 113 14 26 13 29 -7 50 -25 24 -25 24 -123 -37 -48 -31 -62 -35
-122 -35 -39 0 -85 7 -106 16 -71 29 -132 107 -147 187 l-7 37 253 0 c140 0
259 4 265 8 37 25 32 116 -11 201 -31 62 -112 135 -172 155 -58 20 -164 19
-223 -1z m210 -102 c60 -32 110 -97 110 -146 l0 -25 -211 0 -211 0 6 33 c9 44
54 107 96 131 59 35 150 38 210 7z"/>
<path d="M6550 4403 c-29 -11 -67 -38 -107 -78 -53 -53 -64 -71 -83 -134 -28
-92 -25 -220 8 -293 30 -67 94 -133 161 -164 66 -32 174 -43 247 -25 59 15
153 76 174 113 14 26 13 29 -7 50 -25 24 -25 24 -123 -37 -48 -31 -62 -35
-122 -35 -39 0 -85 7 -106 16 -71 29 -132 107 -147 187 l-7 37 253 0 c140 0
259 4 265 8 37 25 32 116 -11 201 -31 62 -112 135 -172 155 -58 20 -164 19
-223 -1z m210 -102 c60 -32 110 -97 110 -146 l0 -25 -211 0 -211 0 6 33 c9 44
54 107 96 131 59 35 150 38 210 7z"/>
<path d="M7383 4407 c-90 -34 -169 -123 -198 -221 -21 -71 -19 -181 5 -259 15
-50 33 -80 72 -122 75 -83 113 -100 223 -100 100 0 145 17 199 74 35 37 48 39
42 9 -10 -58 45 -99 84 -63 19 17 20 33 20 340 0 344 0 345 -51 345 -33 0 -52
-22 -51 -60 1 -35 -8 -38 -34 -9 -10 12 -39 33 -63 47 -37 22 -59 26 -130 29
-51 1 -99 -2 -118 -10z m165 -88 c60 -12 124 -63 154 -123 29 -56 36 -167 14
-233 -21 -62 -66 -118 -119 -144 -61 -32 -161 -24 -218 16 -58 42 -100 119
-106 199 -12 143 60 257 182 287 43 10 39 10 93 -2z"/>
<path d="M9492 4404 c-22 -15 -22 -19 -22 -253 0 -267 8 -315 63 -378 43 -49
98 -73 173 -73 77 0 141 22 193 66 l41 36 0 -34 c0 -95 -57 -187 -132 -214
-56 -21 -139 -16 -212 11 -66 25 -66 25 -86 5 -24 -24 -25 -38 -5 -67 38 -54
234 -77 341 -40 103 36 176 130 193 248 13 89 14 640 2 672 -13 35 -55 46 -81
22 -19 -17 -20 -32 -20 -238 0 -205 -2 -224 -21 -265 -15 -29 -37 -54 -68 -74
-42 -27 -52 -29 -118 -26 -60 3 -76 7 -99 28 -50 47 -54 70 -54 320 0 217 -1
231 -20 250 -24 24 -38 25 -68 4z"/>
<path d="M3371 4394 l-23 -16 4 -242 c3 -274 9 -299 86 -368 110 -99 342 -85
426 25 53 69 59 97 64 318 2 114 2 223 -2 243 -9 48 -44 66 -81 42 l-25 -16 0
-223 c0 -211 -1 -225 -22 -267 -36 -69 -65 -85 -158 -85 -85 0 -112 12 -154
69 -19 25 -21 45 -26 268 -5 222 -6 241 -24 254 -25 18 -36 18 -65 -2z"/>
<path d="M8101 4394 l-23 -16 4 -242 c3 -274 9 -299 86 -368 110 -99 342 -85
426 25 53 69 59 97 64 318 2 114 2 223 -2 243 -9 48 -44 66 -81 42 l-25 -16 0
-223 c0 -211 -1 -225 -22 -267 -36 -69 -65 -85 -158 -85 -85 0 -112 12 -154
69 -19 25 -21 45 -26 268 -5 222 -6 241 -24 254 -25 18 -36 18 -65 -2z"/>
</g>
</svg>
